<svg xmlns="http://www.w3.org/2000/svg" xmlns:xlink="http://www.w3.org/1999/xlink" version="1.1" x="0px" y="0px" viewBox="0 0 9 11.25" enable-background="new 0 0 9 9" xml:space="preserve"><g><polygon points="5.045,4.452 5.167,4.082 4.935,3.797 5.05,3.688 5.245,3.901 5.344,3.629 5.498,3.7 5.396,3.979 5.731,3.933    5.731,4.062 5.375,4.108 5.213,4.516 5.245,4.573 5.731,4.573 5.858,4.173 6.008,4.218 5.891,4.573 6.242,4.573 6.242,4.697    5.932,4.734 6.087,4.976 5.932,5.034 5.764,4.734 5.22,4.722 5.167,4.762 5.368,5.124 5.75,5.183 5.75,5.319 5.426,5.286    5.589,5.556 5.468,5.616 5.303,5.362 5.13,5.589 5.019,5.513 5.199,5.2 5.05,4.807 4.979,4.781 4.663,5.046 4.773,5.384    4.663,5.44 4.534,5.169 4.229,5.421 4.132,5.298 4.418,5.073 4.132,4.976 4.164,4.865 4.527,4.95 4.89,4.69 4.883,4.626    4.508,4.425 4.229,4.573 4.093,4.452 4.346,4.341 4.093,4.186 4.185,4.037 4.47,4.218 4.45,3.875 4.592,3.875 4.618,4.283    4.953,4.49  "/></g><path d="M5.523,2.007H2.744c-0.426,0-0.772,0.346-0.772,0.772v2.778c0,0.457,1.1,1.199,1.505,1.199h2.78  c0.425,0,0.771-0.346,0.771-0.77v-2.78C7.028,2.751,5.928,2.007,5.523,2.007z M6.722,3.239v2.749c0,0.256-0.208,0.465-0.465,0.465  h-2.78c-0.046,0-0.106-0.016-0.177-0.043V3.111l0.005-0.007c0.073-0.102,0.101-0.139,0.426-0.139h2.454  C6.41,2.964,6.608,3.074,6.722,3.239z M5.523,2.312c0.185,0,0.594,0.251,0.883,0.498C6.335,2.792,6.261,2.781,6.186,2.781H3.731  c-0.342,0-0.444,0.051-0.541,0.172L2.466,2.406C2.544,2.348,2.64,2.312,2.744,2.312H5.523z M2.278,5.558V2.78  c0-0.087,0.024-0.167,0.065-0.237l0.775,0.584v3.193C2.744,6.114,2.278,5.72,2.278,5.558z"/><rect x="3.268" y="4.241" width="0.296" height="1.176"/><rect x="2.017" y="5.387" transform="matrix(0.8344 0.5512 -0.5512 0.8344 3.4283 -0.5725)" width="1.3" height="0.061"/><rect x="2.031" y="5.623" transform="matrix(0.8349 0.5504 -0.5504 0.8349 3.5544 -0.542)" width="1.299" height="0.063"/><rect x="2.017" y="5.845" transform="matrix(0.8344 0.5512 -0.5512 0.8344 3.6802 -0.4968)" width="1.3" height="0.061"/><text x="0" y="24" fill="#000000" font-size="5px" font-weight="bold" font-family="'Helvetica Neue', Helvetica, Arial-Unicode, Arial, Sans-serif">Created by Muhamad Faizal Rahman Hakim</text><text x="0" y="29" fill="#000000" font-size="5px" font-weight="bold" font-family="'Helvetica Neue', Helvetica, Arial-Unicode, Arial, Sans-serif">from the Noun Project</text></svg>